<svg width="24" height="19" viewBox="0 0 24 19" fill="none" xmlns="http://www.w3.org/2000/svg">
<path d="M0 2.375C0 1.74511 0.252856 1.14102 0.702944 0.695621C1.15303 0.250222 1.76348 0 2.4 0H21.6C22.2365 0 22.847 0.250222 23.2971 0.695621C23.7471 1.14102 24 1.74511 24 2.375V16.625C24 17.2549 23.7471 17.859 23.2971 18.3044C22.847 18.7498 22.2365 19 21.6 19H2.4C1.76348 19 1.15303 18.7498 0.702944 18.3044C0.252856 17.859 0 17.2549 0 16.625V2.375ZM4.2228 2.375L12 9.10931L19.7772 2.375H4.2228ZM21.6 3.95319L12.7908 11.5817C12.572 11.7714 12.2909 11.876 12 11.876C11.7091 11.876 11.428 11.7714 11.2092 11.5817L2.4 3.95319V16.625H21.6V3.95319Z" fill="#FF6B07"/>
</svg>
