<svg width="24" height="24" viewBox="0 0 24 24" fill="none" xmlns="http://www.w3.org/2000/svg">
<path d="M6 9C7.65685 9 9 7.65685 9 6M6 9C4.34315 9 3 7.65685 3 6M6 9V12M9 6C9 4.34315 7.65685 3 6 3M9 6H12M6 3C4.34315 3 3 4.34315 3 6M6 3V0M3 6H0M2 2L4 4M8 8L10 10M10 2L8 4M4 8L2 10M18 12C19.6569 12 21 10.6569 21 9M18 12C16.3431 12 15 10.6569 15 9M18 12V15M21 9C21 7.34315 19.6569 6 18 6M21 9H24M18 6C16.3431 6 15 7.34315 15 9M18 6V3M15 9H12M14 5L16 7M20 11L22 13M22 5L20 7M16 11L14 13M9 21C10.6569 21 12 19.6569 12 18M9 21C7.34315 21 6 19.6569 6 18M9 21V24M12 18C12 16.3431 10.6569 15 9 15M12 18H15M9 15C7.34315 15 6 16.3431 6 18M9 15V12M6 18H3M5 14L7 16M11 20L13 22M13 14L11 16M7 20L5 22" stroke="#A9A9A9" strokeWidth="2"/>
</svg>
